# xmcd
#
# Track frame offsets:
#	150
#	21508
#	39362
#	50996
#	72352
#	86614
#	107972
#	129655
#	157778
#	176709
#	197003
#	215669
#	229105
#	250195
#	271621
#	289529
#
# Disc length: 4283 seconds
#
# Revision: 6
# Processed by: cddbd v1.5.2PL0 Copyright (c) Steve Scherf et al.
# Submitted via: EZCDAudioConverter 1.3.4.1
#
DISCID=e710b910
DTITLE=Peter Tosh - Legalize It 2/2
DYEAR=1976
DGENRE=
TTITLE0=Legalize It
TTITLE1=Burial
TTITLE2=Whatcha Gonna Do
TTITLE3=No Love, No Sympathy
TTITLE4=Why Must I Cry
TTITLE5=Igziabeher (Let Jah Be Praised)
TTITLE6=Ketchy Shuby
TTITLE7=Till Your Well Runs Dry
TTITLE8=Brand New Second Hand
TTITLE9=Legalize It [Alternate Version]
TTITLE10=Burial [Dub Version 1]
TTITLE11=Whatcha Gonna Do [ShaJahShoka Dub Plate]
TTITLE12=Igziabeher (Let Jah Be Praised) [ShaJahShoka Dub Plate]
TTITLE13=Second Hand [ShaJahShoka Dub Plate]
TTITLE14=Burial [Dub Version 2]
TTITLE15=Legalize It [Dub Version]
EXTD=
EXTT0=
EXTT1=
EXTT2=
EXTT3=
EXTT4=
EXTT5=
EXTT6=
EXTT7=
EXTT8=
EXTT9=
EXTT10=
EXTT11=
EXTT12=
EXTT13=
EXTT14=
EXTT15=
PLAYORDER=
